<?xml version="1.0" standalone="no"?>
<!DOCTYPE svg PUBLIC "-//W3C//DTD SVG 20010904//EN"
 "http://www.w3.org/TR/2001/REC-SVG-20010904/DTD/svg10.dtd">
<svg version="1.0" xmlns="http://www.w3.org/2000/svg"
 width="1600.000000pt" height="900.000000pt" viewBox="0 0 1600.000000 900.000000"
 preserveAspectRatio="xMidYMid meet">

<g transform="translate(0.000000,900.000000) scale(0.100000,-0.100000)"
fill="#000000" stroke="none">
<path d="M2680 6160 c0 -5 7 -10 16 -10 8 0 12 5 9 10 -3 6 -10 10 -16 10 -5
0 -9 -4 -9 -10z"/>
<path d="M2630 6075 c0 -15 18 -40 24 -34 3 3 -1 14 -9 25 -8 10 -14 15 -15 9z"/>
<path d="M2710 6051 c-7 -15 -7 -21 0 -21 12 0 25 28 17 36 -3 3 -10 -4 -17
-15z"/>
<path d="M705 5800 c-3 -5 1 -10 10 -10 9 0 13 5 10 10 -3 6 -8 10 -10 10 -2
0 -7 -4 -10 -10z"/>
<path d="M14758 4493 c6 -2 18 -2 25 0 6 3 1 5 -13 5 -14 0 -19 -2 -12 -5z"/>
<path d="M14800 4491 c0 -15 35 -22 175 -36 32 -4 62 -8 66 -10 3 -3 47 -5 97
-6 51 -1 92 -5 92 -9 0 -4 10 -11 23 -17 17 -8 25 -7 36 4 7 8 20 12 28 9 8
-3 37 -6 64 -6 50 0 65 -13 29 -25 -23 -7 -27 -35 -5 -35 8 0 15 5 15 10 0 6
16 10 35 10 38 0 42 -6 22 -34 -12 -17 -14 -17 -20 -2 -4 9 -11 16 -16 16 -16
0 -24 -40 -11 -55 8 -10 8 -18 -2 -34 -10 -16 -10 -23 0 -33 9 -9 12 -8 12 7
0 15 3 16 12 7 9 -9 8 -15 -7 -25 -24 -18 -12 -36 21 -29 16 3 30 -1 36 -9 7
-11 11 -11 15 -1 2 6 11 12 18 12 17 0 80 59 71 67 -3 3 -6 2 -6 -4 0 -6 -21
-18 -46 -28 l-47 -18 -18 24 c-10 13 -16 32 -13 42 3 9 1 17 -5 17 -6 0 -11 4
-11 10 0 5 13 7 29 4 21 -4 30 -2 35 11 3 9 4 20 1 25 -3 4 3 14 12 21 13 11
17 11 20 2 3 -7 14 -13 26 -13 17 0 19 -2 8 -9 -7 -5 -11 -14 -7 -19 4 -8 13
-6 26 6 13 11 16 20 10 26 -15 15 -12 46 4 46 8 0 16 -6 19 -12 3 -10 7 -10
18 -2 8 7 70 15 139 18 69 4 143 11 165 15 36 8 32 9 -35 10 -360 6 -1001 39
-1097 57 -21 4 -33 2 -33 -5z m793 -88 c-7 -2 -21 -2 -30 0 -10 3 -4 5 12 5
17 0 24 -2 18 -5z"/>
<path d="M15325 4390 c3 -5 8 -10 11 -10 2 0 4 5 4 10 0 6 -5 10 -11 10 -5 0
-7 -4 -4 -10z"/>
<path d="M15135 4380 c-3 -5 3 -10 15 -10 12 0 18 5 15 10 -3 6 -10 10 -15 10
-5 0 -12 -4 -15 -10z"/>
<path d="M15040 4370 c0 -5 5 -10 10 -10 6 0 10 5 10 10 0 6 -4 10 -10 10 -5
0 -10 -4 -10 -10z"/>
<path d="M15112 4345 c0 -16 2 -22 5 -12 2 9 2 23 0 30 -3 6 -5 -1 -5 -18z"/>
<path d="M15333 4354 c0 -8 6 -14 14 -14 7 0 13 4 13 9 0 5 -6 11 -13 14 -8 3
-14 -1 -14 -9z"/>
<path d="M15680 4350 c0 -5 5 -10 10 -10 6 0 10 5 10 10 0 6 -4 10 -10 10 -5
0 -10 -4 -10 -10z"/>
<path d="M15288 4333 c7 -3 16 -2 19 1 4 3 -2 6 -13 5 -11 0 -14 -3 -6 -6z"/>
<path d="M15375 4311 c5 -25 2 -33 -20 -47 -31 -20 -21 -35 18 -27 21 4 27 10
24 23 -2 9 0 25 5 34 6 11 6 22 -2 32 -20 23 -32 16 -25 -15z"/>
<path d="M15170 4320 c0 -5 11 -10 25 -10 14 0 25 5 25 10 0 6 -11 10 -25 10
-14 0 -25 -4 -25 -10z"/>
<path d="M15655 4310 c-3 -5 1 -10 9 -10 9 0 16 5 16 10 0 6 -4 10 -9 10 -6 0
-13 -4 -16 -10z"/>
<path d="M15825 4311 c-3 -5 -1 -12 5 -16 5 -3 10 1 10 9 0 18 -6 21 -15 7z"/>
<path d="M15309 4303 c-1 -5 -1 -11 0 -15 0 -5 -11 -8 -26 -9 -27 0 -27 -1 -7
-11 18 -8 26 -6 43 11 12 12 21 23 21 26 0 8 -30 6 -31 -2z"/>
<path d="M15535 4300 c-4 -6 -10 -8 -15 -5 -9 6 -25 -13 -18 -21 6 -5 78 24
78 31 0 9 -39 5 -45 -5z"/>
<path d="M15120 4250 c0 -5 5 -10 11 -10 5 0 7 5 4 10 -3 6 -8 10 -11 10 -2 0
-4 -4 -4 -10z"/>
<path d="M15680 4250 c0 -5 5 -10 10 -10 6 0 10 5 10 10 0 6 -4 10 -10 10 -5
0 -10 -4 -10 -10z"/>
<path d="M15616 4215 c-11 -8 -15 -15 -10 -15 6 0 19 7 30 15 10 8 15 14 9 14
-5 0 -19 -6 -29 -14z"/>
<path d="M15264 4209 c-8 -13 25 -24 37 -12 7 7 3 12 -10 16 -12 3 -24 1 -27
-4z"/>
<path d="M15367 4203 c-12 -12 -7 -22 8 -17 8 4 15 10 15 15 0 11 -14 12 -23
2z"/>
<path d="M15520 4170 c0 -5 -12 -7 -27 -4 -22 4 -36 -2 -61 -24 -28 -25 -30
-31 -16 -36 11 -4 22 1 31 14 10 14 25 20 54 20 32 0 39 3 39 20 0 11 -4 20
-10 20 -5 0 -10 -4 -10 -10z"/>
<path d="M15337 4163 c-12 -11 -8 -23 8 -23 8 0 15 7 15 15 0 16 -12 20 -23 8z"/>
<path d="M15635 4150 c10 -11 20 -20 22 -20 1 0 3 9 3 20 0 14 -7 20 -22 20
-20 0 -21 -1 -3 -20z"/>
<path d="M15602 4140 c0 -14 2 -19 5 -12 2 6 2 18 0 25 -3 6 -5 1 -5 -13z"/>
<path d="M15340 4090 c0 -5 5 -10 10 -10 6 0 10 5 10 10 0 6 -4 10 -10 10 -5
0 -10 -4 -10 -10z"/>
<path d="M15475 4090 c-12 -20 7 -30 60 -30 30 0 57 -4 60 -10 3 -5 11 -10 16
-10 17 0 0 18 -32 34 -16 8 -37 12 -45 9 -7 -3 -14 0 -14 6 0 14 -37 15 -45 1z"/>
<path d="M15670 4070 c0 -5 5 -10 10 -10 6 0 10 5 10 10 0 6 -4 10 -10 10 -5
0 -10 -4 -10 -10z"/>
<path d="M15180 4061 c0 -6 5 -13 10 -16 6 -3 10 1 10 9 0 9 -4 16 -10 16 -5
0 -10 -4 -10 -9z"/>
<path d="M15360 4040 c0 -24 4 -30 22 -30 17 0 19 3 10 12 -7 7 -12 20 -12 30
0 10 -4 18 -10 18 -5 0 -10 -13 -10 -30z"/>
<path d="M15498 4033 c7 -3 16 -2 19 1 4 3 -2 6 -13 5 -11 0 -14 -3 -6 -6z"/>
<path d="M15610 4005 c-11 -13 -8 -15 14 -15 16 0 26 5 26 15 0 8 -6 15 -14
15 -7 0 -19 -7 -26 -15z"/>
<path d="M15440 3995 c0 -8 9 -15 20 -15 24 0 27 15 4 24 -22 9 -24 8 -24 -9z"/>
<path d="M15310 3975 c-10 -12 -9 -16 5 -21 19 -8 40 9 31 25 -10 15 -21 14
-36 -4z"/>
<path d="M15665 3940 c-3 -5 -1 -10 4 -10 6 0 11 5 11 10 0 6 -2 10 -4 10 -3
0 -8 -4 -11 -10z"/>
<path d="M15597 3933 c-12 -12 -7 -22 8 -17 8 4 15 10 15 15 0 11 -14 12 -23
2z"/>
<path d="M15340 3895 c-10 -12 -10 -15 4 -15 9 0 16 7 16 15 0 8 -2 15 -4 15
-2 0 -9 -7 -16 -15z"/>
<path d="M15540 3890 c0 -5 7 -10 15 -10 8 0 15 5 15 10 0 6 -7 10 -15 10 -8
0 -15 -4 -15 -10z"/>
<path d="M15681 3874 c0 -11 3 -14 6 -6 3 7 2 16 -1 19 -3 4 -6 -2 -5 -13z"/>
<path d="M15390 3870 c0 -5 5 -10 10 -10 6 0 10 5 10 10 0 6 -4 10 -10 10 -5
0 -10 -4 -10 -10z"/>
<path d="M15601 3854 c0 -11 3 -14 6 -6 3 7 2 16 -1 19 -3 4 -6 -2 -5 -13z"/>
<path d="M15628 3823 c7 -3 16 -2 19 1 4 3 -2 6 -13 5 -11 0 -14 -3 -6 -6z"/>
<path d="M15425 3810 c-3 -5 -1 -10 4 -10 6 0 11 5 11 10 0 6 -2 10 -4 10 -3
0 -8 -4 -11 -10z"/>
<path d="M15580 3771 c0 -6 5 -13 10 -16 6 -3 10 1 10 9 0 9 -4 16 -10 16 -5
0 -10 -4 -10 -9z"/>
<path d="M2987 3740 c3 -12 -1 -22 -10 -26 -22 -8 -43 -72 -28 -87 6 -6 11 -9
12 -6 6 40 12 56 24 69 16 18 21 70 6 70 -5 0 -7 -9 -4 -20z"/>
<path d="M2900 3740 c0 -5 7 -10 15 -10 8 0 15 5 15 10 0 6 -7 10 -15 10 -8 0
-15 -4 -15 -10z"/>
<path d="M3020 3742 c0 -10 60 -35 67 -28 4 3 -2 13 -13 21 -20 15 -54 20 -54
7z"/>
<path d="M2860 3720 c-10 -18 -9 -25 3 -37 8 -8 21 -13 28 -11 11 2 11 9 -3
36 -16 33 -17 33 -28 12z"/>
<path d="M15515 3730 c-3 -5 1 -10 10 -10 9 0 13 5 10 10 -3 6 -8 10 -10 10
-2 0 -7 -4 -10 -10z"/>
<path d="M3020 3686 c0 -14 24 -29 33 -19 3 3 3 11 0 19 -7 18 -33 18 -33 0z"/>
<path d="M2815 3663 c-15 -56 -12 -70 13 -65 21 4 21 6 8 21 -10 11 -12 21 -6
31 12 19 13 40 1 40 -5 0 -12 -12 -16 -27z"/>
<path d="M2883 3608 c0 -7 -4 -21 -8 -30 -5 -14 -2 -18 14 -18 12 0 21 3 21 8
0 4 3 17 6 30 5 17 2 22 -13 22 -11 0 -20 -6 -20 -12z"/>
<path d="M3010 3605 c0 -16 16 -20 24 -6 3 5 -1 11 -9 15 -9 3 -15 0 -15 -9z"/>
<path d="M2970 3582 c0 -6 -3 -17 -6 -25 -4 -11 1 -13 21 -9 17 3 25 10 23 21
-3 17 -38 29 -38 13z"/>
<path d="M3098 3566 c-27 -9 -39 -36 -18 -36 6 0 10 5 10 10 0 6 7 10 16 10
12 0 15 -7 12 -25 -7 -32 8 -23 16 11 9 34 -2 43 -36 30z"/>
<path d="M2821 3508 c26 -50 109 -102 109 -68 0 5 -6 7 -14 4 -8 -3 -17 3 -21
14 -3 11 -19 25 -35 31 -21 7 -28 15 -24 25 4 11 0 16 -10 16 -14 0 -15 -4 -5
-22z"/>
<path d="M2908 3513 c7 -3 16 -2 19 1 4 3 -2 6 -13 5 -11 0 -14 -3 -6 -6z"/>
<path d="M3010 3507 c0 -7 8 -17 18 -24 15 -9 19 -8 19 5 0 16 -14 32 -29 32
-5 0 -8 -6 -8 -13z"/>
<path d="M15355 3510 c-3 -5 1 -10 9 -10 9 0 16 5 16 10 0 6 -4 10 -9 10 -6 0
-13 -4 -16 -10z"/>
<path d="M2960 3480 c0 -5 5 -10 11 -10 5 0 7 5 4 10 -3 6 -8 10 -11 10 -2 0
-4 -4 -4 -10z"/>
<path d="M3065 3470 c-11 -12 -31 -20 -52 -20 -18 0 -33 -4 -33 -10 0 -23 73
-5 118 30 22 18 23 20 5 20 -11 0 -28 -9 -38 -20z"/>
<path d="M15505 3480 c-3 -5 1 -10 10 -10 9 0 13 5 10 10 -3 6 -8 10 -10 10
-2 0 -7 -4 -10 -10z"/>
<path d="M15360 3429 c0 -11 5 -17 10 -14 6 3 10 13 10 21 0 8 -4 14 -10 14
-5 0 -10 -9 -10 -21z"/>
<path d="M15495 3431 c-3 -6 4 -15 15 -21 22 -12 23 -10 14 14 -7 18 -20 21
-29 7z"/>
<path d="M15440 3381 c0 -29 4 -41 14 -41 8 0 16 -5 18 -12 2 -6 10 -8 16 -4
17 10 15 26 -3 26 -16 0 -39 36 -30 50 3 5 1 11 -5 15 -6 4 -10 -9 -10 -34z"/>
<path d="M15275 3399 c-4 -6 -5 -12 -2 -15 2 -3 7 2 10 11 7 17 1 20 -8 4z"/>
<path d="M15360 3375 c0 -3 6 -15 13 -28 6 -12 12 -23 12 -24 0 -1 12 -4 28
-8 16 -4 27 -3 27 3 0 6 -10 12 -22 14 -15 2 -24 11 -26 26 -2 12 -10 22 -18
22 -8 0 -14 -2 -14 -5z"/>
<path d="M15220 3341 c0 -12 6 -21 16 -21 9 0 14 7 12 17 -5 25 -28 28 -28 4z"/>
<path d="M15517 3326 c-4 -10 0 -12 14 -9 10 3 16 9 13 14 -8 13 -21 11 -27
-5z"/>
<path d="M15333 3306 c-26 -12 -30 -26 -9 -26 13 0 43 28 35 33 -2 2 -14 -2
-26 -7z"/>
<path d="M15466 3291 c-4 -5 -2 -12 3 -15 5 -4 12 -2 15 3 4 5 2 12 -3 15 -5
4 -12 2 -15 -3z"/>
<path d="M15200 3274 c0 -8 5 -12 10 -9 6 4 8 11 5 16 -9 14 -15 11 -15 -7z"/>
<path d="M15360 3276 c0 -9 5 -16 10 -16 6 0 10 4 10 9 0 6 -4 13 -10 16 -5 3
-10 -1 -10 -9z"/>
<path d="M15255 3250 c-4 -6 5 -10 20 -10 15 0 24 4 20 10 -3 6 -12 10 -20 10
-8 0 -17 -4 -20 -10z"/>
<path d="M15434 3252 c3 -5 1 -12 -6 -14 -8 -3 -9 -6 -1 -11 6 -4 13 0 17 8 3
8 0 17 -6 21 -6 4 -8 3 -4 -4z"/>
<path d="M15505 3250 c-3 -5 -1 -10 4 -10 6 0 11 5 11 10 0 6 -2 10 -4 10 -3
0 -8 -4 -11 -10z"/>
<path d="M14973 3223 c-20 -42 -15 -47 16 -17 29 27 32 44 8 44 -7 0 -18 -12
-24 -27z"/>
<path d="M15168 3225 c-6 -13 -19 -27 -30 -30 -10 -4 -18 -15 -18 -25 0 -28
-34 -44 -61 -29 -16 8 -18 13 -9 19 9 5 9 9 1 14 -6 4 -11 2 -11 -4 0 -7 -6
-10 -14 -7 -10 4 -12 0 -8 -15 5 -19 2 -21 -30 -15 -32 5 -35 3 -31 -14 3 -10
0 -19 -6 -19 -6 0 -11 5 -11 10 0 6 -8 10 -18 10 -10 0 -23 5 -30 12 -7 7 -12
8 -12 3 0 -4 15 -22 33 -38 17 -16 25 -27 17 -25 -8 3 -23 1 -32 -4 -12 -5
-18 -5 -18 2 0 5 -7 10 -17 10 -14 0 -14 -2 2 -20 15 -16 16 -22 5 -35 -8 -10
-20 -13 -33 -9 -15 5 -19 3 -14 -9 3 -8 -1 -23 -8 -34 -8 -10 -15 -27 -15 -39
0 -11 -16 -37 -36 -57 l-36 -36 28 -6 c16 -4 38 -9 49 -12 29 -8 183 -30 340
-48 330 -38 404 -56 415 -103 3 -13 3 -249 0 -525 -3 -276 -3 -505 0 -509 3
-3 103 -10 223 -14 l217 -7 0 22 c0 19 -5 21 -62 21 -35 0 -87 3 -116 7 -48 5
-52 8 -46 27 4 12 11 24 16 27 5 3 2 9 -8 13 -11 4 -20 2 -22 -3 -7 -20 -32
-11 -33 12 -2 58 -9 74 -44 92 -6 3 -5 7 3 11 21 10 53 47 49 58 -5 15 -35 31
-44 23 -4 -4 -2 -17 5 -27 10 -17 10 -20 -3 -20 -10 0 -15 11 -16 33 -3 89 -6
135 -14 170 -7 32 -5 37 11 37 18 1 18 1 1 15 -20 14 -16 52 7 68 7 4 3 9 -11
13 -28 8 -30 24 -4 24 31 0 35 19 7 30 -14 5 -26 16 -26 24 0 24 12 46 21 40
5 -3 8 14 8 38 -1 40 -2 41 -9 13 -7 -26 -8 -24 -9 19 -1 40 1 46 13 37 11 -9
13 -3 10 34 -2 25 -10 53 -19 61 -8 9 -15 21 -15 27 0 18 38 77 50 77 5 0 10
10 10 21 0 18 -2 19 -15 9 -8 -7 -15 -20 -15 -28 0 -11 -3 -13 -10 -6 -8 8 -7
25 2 58 13 48 13 48 -20 77 -18 16 -39 29 -48 29 -24 0 -11 24 17 30 26 6 19
14 -23 24 -34 8 -36 19 -4 34 26 12 42 62 20 62 -8 0 -14 -7 -14 -15 0 -8 -4
-15 -9 -15 -5 0 -14 7 -21 15 -7 8 -21 15 -31 15 -11 0 -19 7 -19 16 0 17 22
16 63 -1 12 -5 17 -3 17 8 0 8 7 18 16 21 8 3 12 10 9 16 -8 13 -45 13 -45 0
0 -5 -9 -10 -20 -10 -11 0 -20 5 -20 10 0 17 -18 11 -23 -7 -4 -17 -4 -17 -12
1 -4 10 -4 21 2 25 5 3 13 20 16 36 3 17 4 24 1 18 -3 -7 -11 -13 -19 -13 -7
0 -18 -7 -25 -15 -14 -16 -40 -20 -40 -6 0 5 12 12 26 15 30 8 27 30 -4 34
-15 2 -22 -2 -22 -12 0 -9 -7 -16 -15 -16 -11 0 -13 8 -8 32 l6 31 -41 -7
c-33 -5 -42 -3 -42 8 0 22 18 29 22 9 3 -15 5 -14 10 5 9 32 -14 39 -49 15
-15 -11 -46 -20 -68 -22 -21 -1 -41 -4 -43 -6 -2 -2 -12 5 -23 16 -23 23 -25
57 -4 65 17 7 21 34 5 34 -6 0 -16 -11 -22 -25z m485 -479 c6 -16 -16 -40 -26
-29 -4 3 -7 15 -7 25 0 21 25 24 33 4z"/>
<path d="M15391 3206 c-12 -14 -5 -26 16 -26 15 0 18 26 4 34 -5 3 -14 0 -20
-8z"/>
<path d="M15588 3201 c-14 -19 -69 -57 -100 -67 -18 -6 -25 -24 -9 -24 4 0 25
11 45 25 20 14 40 25 43 25 8 0 43 41 43 52 0 13 -8 9 -22 -11z"/>
<path d="M15470 3195 c0 -8 7 -15 15 -15 8 0 15 7 15 15 0 8 -7 15 -15 15 -8
0 -15 -7 -15 -15z"/>
<path d="M15280 3178 c0 -19 2 -20 10 -8 13 19 13 30 0 30 -5 0 -10 -10 -10
-22z"/>
<path d="M14915 3160 c-3 -5 1 -10 10 -10 9 0 13 5 10 10 -3 6 -8 10 -10 10
-2 0 -7 -4 -10 -10z"/>
<path d="M15428 3163 c6 -2 12 -11 12 -19 0 -21 17 -17 23 6 4 16 0 20 -21 19
-15 0 -21 -3 -14 -6z"/>
<path d="M15592 3091 c-10 -6 -10 -11 3 -21 19 -16 30 -7 18 14 -5 9 -13 12
-21 7z"/>
<path d="M15640 3036 c0 -8 5 -18 10 -21 6 -3 10 3 10 14 0 12 -4 21 -10 21
-5 0 -10 -6 -10 -14z"/>
<path d="M926 3003 c-14 -15 -5 -43 14 -43 11 0 20 -6 20 -14 0 -20 -30 -29
-36 -11 -3 8 -15 17 -26 21 -13 4 -18 12 -15 25 4 14 0 19 -14 19 -10 0 -19
-2 -19 -4 0 -15 32 -76 40 -76 6 0 10 -7 10 -15 0 -19 -4 -19 -46 1 -19 9 -34
22 -34 29 0 7 -7 15 -15 19 -21 8 -22 -2 -35 -299 -7 -143 -15 -282 -19 -310
l-7 -50 -7 60 c-4 33 -9 69 -11 80 -3 11 -5 54 -6 95 l-2 75 -13 -40 c-8 -22
-17 -48 -21 -57 -3 -10 -13 -19 -20 -19 -8 -1 -18 -3 -24 -4 -5 -1 -15 -3 -20
-4 -6 0 -16 -12 -22 -26 -6 -14 -17 -25 -25 -25 -7 0 -13 -4 -13 -10 0 -5 -18
-10 -40 -10 -23 0 -40 -5 -40 -11 0 -8 -17 -10 -55 -6 -31 3 -55 2 -55 -4 0
-5 7 -9 15 -9 8 0 15 -4 15 -10 0 -5 -4 -10 -9 -10 -4 0 -24 -15 -44 -34 -26
-25 -34 -39 -30 -55 5 -19 1 -21 -37 -21 -41 0 -42 1 -36 28 3 15 3 21 0 15
-3 -7 -12 -13 -20 -13 -10 0 -14 -12 -14 -40 l0 -40 -40 0 c-34 0 -40 -3 -40
-20 0 -11 7 -23 15 -26 8 -4 15 -12 15 -20 0 -8 7 -14 16 -14 14 0 14 -3 4
-15 -9 -11 -34 -15 -96 -15 l-84 0 0 -556 0 -557 373 6 c204 4 377 7 382 7 6
0 12 17 13 37 2 21 5 39 7 42 15 14 315 -22 400 -48 24 -7 12 -10 -60 -11 -49
-1 -101 -2 -115 -1 -41 3 -223 -28 -234 -39 -7 -7 -3 -10 12 -10 12 0 22 -4
22 -9 0 -8 50 -13 230 -26 195 -14 1184 -38 1211 -30 15 5 18 11 12 23 -4 10
-7 416 -6 904 l2 887 -32 5 c-18 3 -90 10 -162 16 -71 6 -173 15 -225 20 -52
6 -218 22 -369 36 -232 21 -278 28 -299 45 -14 10 -23 19 -21 19 2 1 56 3 119
5 74 2 127 9 150 19 l35 15 -30 2 c-16 1 -33 1 -36 1 -39 -5 -138 -10 -121 -6
28 7 28 20 0 27 -23 6 -58 -8 -58 -23 0 -6 -8 -10 -17 -10 -14 0 -15 2 -4 9 7
5 10 14 7 20 -5 7 1 11 16 11 21 0 21 1 5 17 -16 16 -18 16 -40 -5 l-23 -22
-13 45 c-12 42 -39 55 -28 14 7 -26 -11 -35 -27 -13 -7 9 -18 14 -24 10 -16
-10 -15 -36 1 -37 6 0 3 -4 -8 -9 -27 -12 -43 -12 -25 0 13 8 13 9 0 14 -8 2
-23 7 -33 10 -9 3 -21 16 -27 30 -10 27 -24 39 -34 29z m44 -116 c0 -5 -4 -5
-10 -2 -5 3 -10 14 -10 23 0 15 2 15 10 2 5 -8 10 -19 10 -23z m-75 -37 c3 -5
1 -10 -4 -10 -6 0 -11 5 -11 10 0 6 2 10 4 10 3 0 8 -4 11 -10z m-225 -400 c0
-5 -7 -10 -15 -10 -8 0 -15 5 -15 10 0 6 7 10 15 10 8 0 15 -4 15 -10z m-410
-260 c0 -5 -4 -10 -10 -10 -5 0 -10 5 -10 10 0 6 5 10 10 10 6 0 10 -4 10 -10z"/>
<path d="M990 2986 c0 -13 39 -30 48 -21 8 7 -20 35 -34 35 -8 0 -14 -6 -14
-14z"/>
<path d="M4200 2715 c-14 -17 1 -27 47 -31 38 -3 36 8 -7 29 -24 12 -31 13
-40 2z"/>
<path d="M4118 2703 c-24 -28 -44 -76 -40 -96 3 -15 9 -17 30 -12 15 4 36 15
48 26 11 10 32 19 47 19 18 0 27 5 27 15 0 13 -7 15 -34 10 -31 -6 -34 -5 -39
24 -7 35 -17 39 -39 14z m8 -70 c-10 -10 -19 5 -10 18 6 11 8 11 12 0 2 -7 1
-15 -2 -18z"/>
<path d="M12960 2636 c0 -9 71 -37 120 -46 25 -5 77 -16 115 -24 39 -9 103
-19 144 -23 61 -5 71 -8 57 -18 -25 -19 -21 -47 7 -43 16 2 22 10 22 27 0 28
17 37 42 22 10 -6 12 -11 6 -11 -7 0 -13 -9 -13 -20 0 -11 -4 -20 -10 -20 -5
0 -10 -5 -10 -11 0 -6 8 -8 18 -5 27 9 41 -6 35 -37 -4 -18 -15 -32 -30 -38
-14 -5 -35 -16 -46 -25 l-22 -16 23 5 c12 3 20 2 18 -2 -3 -4 -1 -13 4 -20 9
-16 30 -6 30 15 0 8 7 14 15 14 8 0 15 9 15 20 0 14 6 20 16 18 10 -2 19 3 21
10 3 6 0 12 -6 12 -6 0 -11 6 -11 14 0 8 8 13 18 11 9 -2 23 -4 30 -4 9 -1 10
-6 3 -20 -8 -14 -6 -23 9 -36 19 -18 20 -17 20 8 0 17 5 27 15 27 21 0 19 30
-2 31 -14 0 -12 3 5 10 13 5 20 13 17 19 -8 12 -35 13 -35 1 0 -5 -17 -4 -40
1 -24 6 -40 16 -40 25 0 11 7 13 33 7 17 -4 50 -8 72 -8 32 -1 39 -4 37 -18
-1 -9 6 -19 18 -23 11 -4 18 -11 15 -16 -4 -5 0 -9 7 -9 9 -1 7 -5 -4 -14 -25
-18 -22 -26 8 -26 17 0 28 6 31 19 3 11 18 24 34 30 35 12 37 24 7 39 -22 10
-21 11 10 11 26 1 32 -3 32 -19 0 -11 6 -20 13 -20 8 0 7 -4 -3 -10 -13 -8
-12 -10 3 -10 9 0 17 5 17 10 0 6 7 10 15 10 8 0 15 -4 15 -9 0 -12 -41 -21
-68 -14 -15 4 -22 1 -22 -10 0 -8 11 -18 25 -21 16 -4 25 -13 25 -26 0 -12 7
-20 16 -20 13 0 14 -3 5 -14 -7 -8 -8 -17 -3 -20 14 -9 33 19 26 38 -3 9 -12
16 -20 16 -18 0 -18 14 1 30 12 10 16 9 21 -4 3 -9 10 -13 15 -10 14 8 10 24
-6 24 -21 0 -19 16 5 33 14 9 18 21 14 33 -4 12 -3 15 3 7 6 -8 14 -9 23 -3
26 17 42 12 35 -10 -5 -14 -2 -20 9 -20 9 0 16 7 16 15 0 8 5 15 10 15 6 0 10
-8 8 -17 -5 -26 32 -30 39 -4 3 12 8 21 12 21 19 2 242 9 273 9 20 0 39 5 43
11 4 6 -10 10 -37 10 -187 1 -675 27 -943 51 -120 10 -395 52 -428 65 -9 3
-17 3 -17 0z m920 -146 c0 -5 -9 -10 -20 -10 -11 0 -20 5 -20 10 0 6 9 10 20
10 11 0 20 -4 20 -10z m-138 -42 c-15 -15 -26 -4 -18 18 5 13 9 15 18 6 9 -9
9 -15 0 -24z"/>
<path d="M4276 2621 c-4 -5 -2 -11 4 -13 15 -5 -13 -53 -32 -53 -25 0 -35 -15
-18 -25 21 -13 23 -13 48 10 14 14 22 33 22 55 0 33 -12 46 -24 26z"/>
<path d="M4187 2573 c-12 -11 -8 -23 8 -23 8 0 15 7 15 15 0 16 -12 20 -23 8z"/>
<path d="M4095 2561 c-3 -5 -1 -12 5 -16 5 -3 10 1 10 9 0 18 -6 21 -15 7z"/>
<path d="M14410 2510 c-12 -8 -10 -10 10 -10 14 0 32 5 40 10 12 8 10 10 -10
10 -14 0 -32 -5 -40 -10z"/>
<path d="M13280 2495 c0 -8 7 -15 15 -15 8 0 15 4 15 9 0 5 -7 11 -15 15 -9 3
-15 0 -15 -9z"/>
<path d="M13360 2450 c0 -5 5 -10 11 -10 5 0 7 5 4 10 -3 6 -8 10 -11 10 -2 0
-4 -4 -4 -10z"/>
<path d="M13427 2441 c-17 -6 -17 -9 -4 -19 12 -10 16 -9 20 8 3 11 4 20 4 19
-1 0 -10 -4 -20 -8z"/>
<path d="M13922 2438 c5 -15 28 -18 29 -3 0 6 -7 12 -17 13 -10 3 -15 -1 -12
-10z"/>
<path d="M14135 2430 c28 -12 45 -12 45 0 0 6 -15 10 -32 9 -28 0 -30 -2 -13
-9z"/>
<path d="M13752 2397 c-16 -19 0 -36 38 -42 l35 -6 -32 15 c-23 10 -31 20 -27
30 7 19 0 21 -14 3z"/>
<path d="M12123 2393 c9 -2 23 -2 30 0 6 3 -1 5 -18 5 -16 0 -22 -2 -12 -5z"/>
<path d="M12307 2393 c18 -2 50 -2 70 0 21 2 7 4 -32 4 -38 0 -55 -2 -38 -4z"/>
<path d="M13680 2370 c0 -5 5 -10 11 -10 5 0 7 5 4 10 -3 6 -8 10 -11 10 -2 0
-4 -4 -4 -10z"/>
<path d="M14000 2372 c0 -6 -8 -13 -17 -15 -16 -4 -16 -5 -1 -6 18 -1 34 16
24 26 -3 4 -6 1 -6 -5z"/>
<path d="M14110 2360 c0 -5 5 -10 10 -10 6 0 10 5 10 10 0 6 -4 10 -10 10 -5
0 -10 -4 -10 -10z"/>
<path d="M13300 2350 c19 -13 30 -13 30 0 0 6 -10 10 -22 10 -19 0 -20 -2 -8
-10z"/>
<path d="M13510 2346 c0 -10 9 -16 21 -16 24 0 21 23 -4 28 -10 2 -17 -3 -17
-12z"/>
<path d="M14045 2347 c-4 -10 -5 -21 -1 -24 10 -10 18 4 13 24 -4 17 -4 17
-12 0z"/>
<path d="M13920 2330 c0 -5 7 -7 15 -4 8 4 15 8 15 10 0 2 -7 4 -15 4 -8 0
-15 -4 -15 -10z"/>
<path d="M13380 2310 c0 -5 10 -15 23 -21 12 -7 25 -17 29 -23 5 -8 10 -8 19
1 8 8 6 13 -10 18 -12 3 -21 13 -21 21 0 8 -9 14 -20 14 -11 0 -20 -4 -20 -10z"/>
<path d="M14065 2290 c-3 -5 1 -10 9 -10 9 0 16 5 16 10 0 6 -4 10 -9 10 -6 0
-13 -4 -16 -10z"/>
<path d="M13324 2265 c-14 -14 -24 -29 -21 -31 7 -8 67 25 67 36 0 21 -22 19
-46 -5z"/>
<path d="M13532 2274 c11 -11 23 -14 35 -9 17 7 17 8 -2 15 -11 5 -27 9 -35 9
-12 1 -11 -2 2 -15z"/>
<path d="M13680 2271 c0 -14 5 -19 15 -14 17 6 15 25 -3 31 -7 2 -12 -5 -12
-17z"/>
<path d="M13773 2282 c-10 -6 -10 -12 1 -28 14 -19 15 -19 22 1 4 11 12 23 18
27 15 10 -26 10 -41 0z"/>
<path d="M14000 2260 c0 -16 -5 -30 -12 -30 -6 0 -9 -2 -6 -6 3 -3 21 4 39 16
32 19 33 21 12 26 -13 4 -20 10 -17 15 3 5 0 9 -5 9 -6 0 -11 -13 -11 -30z"/>
<path d="M13858 2273 c7 -3 16 -2 19 1 4 3 -2 6 -13 5 -11 0 -14 -3 -6 -6z"/>
<path d="M13383 2238 c2 -7 10 -13 17 -13 7 0 15 6 18 13 2 7 -5 12 -18 12
-13 0 -20 -5 -17 -12z"/>
<path d="M13460 2234 c0 -9 7 -14 17 -12 25 5 28 28 4 28 -12 0 -21 -6 -21
-16z"/>
<path d="M13856 2233 c-12 -12 -6 -33 9 -33 8 0 15 6 15 14 0 17 -14 28 -24
19z"/>
<path d="M13630 2215 c0 -8 7 -15 15 -15 8 0 15 7 15 15 0 8 -7 15 -15 15 -8
0 -15 -7 -15 -15z"/>
<path d="M13531 2199 c-12 -12 -20 -23 -17 -26 6 -7 85 30 86 40 0 15 -47 6
-69 -14z"/>
<path d="M13760 2207 c0 -8 10 -22 22 -33 20 -18 21 -18 15 -1 -4 10 -7 25 -7
33 0 8 -7 14 -15 14 -8 0 -15 -6 -15 -13z"/>
<path d="M13827 2206 c-3 -8 1 -20 9 -27 21 -17 29 -4 11 21 -12 17 -16 18
-20 6z"/>
<path d="M13430 2190 c0 -5 4 -10 9 -10 6 0 13 5 16 10 3 6 -1 10 -9 10 -9 0
-16 -4 -16 -10z"/>
<path d="M13945 2191 c-3 -5 -1 -12 5 -16 5 -3 10 1 10 9 0 18 -6 21 -15 7z"/>
<path d="M13360 2172 c0 -5 7 -13 16 -16 10 -4 14 -1 12 6 -5 15 -28 23 -28
10z"/>
<path d="M13642 2173 c-29 -6 -19 -23 14 -23 15 0 24 6 24 15 0 8 -3 14 -7 14
-5 -1 -18 -4 -31 -6z"/>
<path d="M3799 2082 c-59 -48 -155 -125 -215 -172 -59 -47 -134 -105 -165
-130 -32 -25 -91 -71 -133 -104 l-76 -59 0 -111 c-1 -61 -2 -189 -3 -284 -2
-146 0 -173 13 -176 8 -3 47 -7 85 -11 226 -22 480 -73 572 -116 89 -42 123
-79 123 -134 0 -24 3 -46 8 -48 4 -2 75 0 157 4 83 4 277 13 433 19 155 7 285
17 288 22 8 12 -25 48 -43 48 -7 0 -13 -5 -13 -10 0 -12 -183 -2 -188 10 -2 5
-21 5 -44 2 -40 -5 -41 -5 -34 21 7 31 6 31 -29 15 -22 -10 -28 -9 -41 10 -8
12 -21 22 -28 22 -8 0 -16 10 -20 22 -4 18 -8 20 -18 10 -10 -10 -8 -15 10
-28 18 -12 31 -44 19 -44 -12 0 -88 43 -83 47 9 9 -23 35 -35 27 -8 -5 -6 -10
5 -16 22 -13 11 -28 -22 -28 -20 0 -23 3 -14 12 19 19 14 28 -13 28 -18 0 -23
-4 -19 -15 4 -8 2 -15 -4 -15 -6 0 -12 6 -15 13 -3 9 -7 9 -20 -1 -11 -10 -21
-11 -35 -3 -13 7 -22 7 -30 -1 -9 -9 -12 -4 -12 22 0 26 -3 31 -12 22 -18 -18
-35 -15 -41 8 -5 20 -27 28 -27 10 0 -5 -7 -10 -15 -10 -8 0 -24 -5 -35 -12
-25 -16 -37 -3 -16 18 25 25 4 41 -25 20 -13 -9 -34 -16 -46 -16 -24 0 -31
-16 -10 -23 6 -2 -1 -3 -17 -1 -16 3 -37 11 -46 19 -9 8 -21 15 -27 15 -15 0
-10 33 5 38 7 2 12 -3 12 -10 0 -18 44 -43 59 -34 18 12 12 24 -9 19 -29 -8
-25 17 8 45 20 18 22 22 7 16 -24 -9 -50 -8 -87 1 -27 7 -28 6 -28 -28 0 -44
-10 -51 -46 -32 -16 8 -39 15 -52 15 -13 0 -32 5 -42 10 -10 6 -49 12 -86 14
-70 5 -102 20 -69 32 10 4 26 2 36 -4 23 -15 96 -16 104 -1 4 6 -1 16 -11 24
-12 8 -21 10 -25 3 -3 -5 -15 -8 -25 -7 -11 2 -24 0 -31 -4 -7 -4 -20 1 -31
14 l-20 20 -16 -22 c-12 -18 -19 -20 -28 -11 -9 9 -8 16 5 30 31 34 19 56 -14
26 -22 -20 -51 -12 -43 11 4 9 13 14 21 11 7 -3 16 1 19 9 7 17 34 21 34 5 0
-5 14 -10 30 -10 36 0 42 27 8 32 -23 3 -40 48 -19 48 6 0 11 6 11 13 0 7 6
22 14 32 11 16 17 17 29 7 12 -10 17 -10 23 -1 4 7 -1 18 -11 26 -22 15 -45
17 -45 3 0 -5 -7 -7 -16 -3 -10 4 -17 -1 -21 -16 -6 -22 -36 -28 -62 -12 -12
8 -9 11 12 16 15 4 27 12 27 19 1 6 17 19 38 29 33 15 38 15 48 2 15 -21 31
-19 39 4 5 15 15 19 54 17 55 -1 89 18 70 40 -6 8 -15 11 -21 8 -13 -8 -60 46
-54 62 6 16 36 19 36 4 0 -5 5 -10 10 -10 6 0 10 14 10 30 0 19 5 30 14 30 8
0 16 7 18 15 2 10 7 12 18 5 12 -7 12 -12 2 -22 -18 -18 -15 -35 15 -62 20
-19 30 -22 40 -14 18 14 7 28 -24 28 -19 0 -24 4 -19 16 3 9 6 18 6 20 0 13
31 1 39 -15 13 -24 46 -38 37 -16 -3 8 -8 21 -11 28 -4 8 5 18 21 26 25 11 26
11 20 -14 -6 -22 -4 -26 11 -23 33 6 27 42 -9 58 -18 8 -40 13 -47 11 -8 -1
-20 4 -25 11 -6 8 -19 17 -28 21 -26 10 -22 27 7 27 14 0 25 -4 25 -10 0 -15
26 -12 39 4 9 11 5 15 -20 20 -27 5 -30 8 -19 21 16 19 50 20 50 1 0 -23 17
-28 33 -11 9 8 20 15 26 15 15 0 14 -27 -1 -33 -9 -4 -9 -6 1 -6 16 -1 81 40
81 51 0 3 18 4 40 1 33 -5 40 -3 40 11 0 10 -8 16 -24 16 -13 0 -29 7 -36 15
-17 21 -33 19 -27 -4 4 -17 2 -18 -24 -9 -23 8 -33 6 -55 -11 -15 -12 -31 -21
-37 -21 -13 0 -36 31 -36 50 0 11 3 10 14 -4 13 -17 15 -18 15 -3 0 16 12 22
34 18 4 -1 14 6 20 15 10 13 17 14 34 5 14 -8 22 -8 22 -1 0 5 -7 10 -15 10
-8 0 -15 5 -15 10 0 6 -7 10 -15 10 -8 0 -15 5 -15 11 0 5 4 8 9 4 5 -3 12 -1
16 5 11 18 33 10 39 -15 4 -14 14 -25 23 -25 9 0 22 -8 29 -17 11 -16 16 -16
35 -5 19 12 21 12 15 -3 -4 -12 0 -18 14 -22 27 -7 28 -53 1 -60 -21 -5 -36
-43 -17 -43 7 0 21 6 31 14 17 12 21 11 32 -8 24 -42 26 -48 13 -56 -11 -7
-10 -12 3 -25 9 -9 21 -13 27 -10 5 3 10 -3 10 -14 0 -12 8 -29 19 -40 10 -10
23 -31 28 -47 9 -27 33 -46 33 -25 0 6 -31 73 -69 148 -38 76 -83 170 -101
208 -17 39 -35 77 -41 85 -5 8 -13 24 -18 35 -5 11 -34 73 -65 139 -31 65 -56
122 -56 127 0 22 -32 3 -131 -79z m67 -9 c-10 -10 -19 5 -10 18 6 11 8 11 12
0 2 -7 1 -15 -2 -18z m64 -38 c0 -18 -11 -19 -29 -2 -11 10 -14 10 -18 0 -3
-7 -13 -13 -23 -13 -10 0 -21 -6 -23 -12 -4 -9 -6 -10 -6 -1 -2 22 30 43 65
43 24 0 34 -5 34 -15z m30 -31 c0 -8 -4 -12 -10 -9 -5 3 -10 10 -10 16 0 5 5
9 10 9 6 0 10 -7 10 -16z m-135 -33 c8 -14 -24 -41 -48 -41 -21 1 -21 1 3 15
14 8 21 14 17 15 -11 0 2 20 13 20 5 0 11 -4 15 -9z m95 -21 c0 -11 -48 -25
-56 -17 -4 3 -3 10 1 16 8 14 55 14 55 1z m54 -14 c-6 -16 -24 -23 -24 -8 0
10 22 33 27 28 2 -2 1 -11 -3 -20z m-64 -41 c0 -8 6 -12 14 -9 16 6 31 -12 17
-20 -16 -10 -57 18 -53 37 4 20 22 13 22 -8z m-150 -1 c0 -8 -4 -12 -10 -9 -5
3 -10 10 -10 16 0 5 5 9 10 9 6 0 10 -7 10 -16z m92 -28 c-3 -5 -9 -1 -13 10
-12 31 -10 39 5 19 8 -11 12 -24 8 -29z m163 18 c1 -10 13 -31 28 -46 15 -15
27 -32 27 -38 0 -19 -39 -10 -45 10 -3 11 -11 20 -16 20 -5 0 -9 11 -9 24 0
13 -5 26 -12 28 -6 2 -8 10 -4 17 11 17 31 8 31 -15z m-305 -8 c0 -2 -7 -9
-15 -16 -12 -10 -15 -10 -15 4 0 9 7 16 15 16 8 0 15 -2 15 -4z m40 -24 c0
-13 -12 -22 -22 -16 -10 6 -1 24 13 24 5 0 9 -4 9 -8z m-80 -23 c0 -12 -57
-12 -65 0 -3 5 5 11 17 13 28 5 48 -1 48 -13z m201 0 c23 -12 16 -29 -12 -29
-10 0 -19 2 -19 4 0 2 -3 11 -6 20 -7 18 9 21 37 5z m-321 -3 c0 -2 -7 -6 -15
-10 -8 -3 -15 -1 -15 4 0 6 7 10 15 10 8 0 15 -2 15 -4z m244 -22 c9 -3 16
-10 16 -15 0 -14 -26 -10 -40 6 -13 16 -3 20 24 9z m-68 -18 c15 -16 19 -36 6
-36 -12 0 -32 23 -32 37 0 17 8 16 26 -1z m-46 -16 c0 -5 -7 -10 -15 -10 -8 0
-15 5 -15 10 0 6 7 10 15 10 8 0 15 -4 15 -10z m135 -40 c4 -6 -8 -10 -30 -10
-22 0 -34 4 -30 10 3 6 17 10 30 10 13 0 27 -4 30 -10z m-133 -32 c-7 -7 -12
-8 -12 -2 0 14 12 26 19 19 2 -3 -1 -11 -7 -17z m278 6 c0 -9 -5 -14 -12 -12
-18 6 -21 28 -4 28 9 0 16 -7 16 -16z m-200 -14 c0 -11 -7 -20 -15 -20 -15 0
-21 21 -8 33 12 13 23 7 23 -13z m-190 -20 c0 -5 -5 -10 -11 -10 -5 0 -7 5 -4
10 3 6 8 10 11 10 2 0 4 -4 4 -10z m-94 -27 c-10 -10 -19 5 -10 18 6 11 8 11
12 0 2 -7 1 -15 -2 -18z m224 -12 c0 -6 -4 -13 -10 -16 -5 -3 -10 1 -10 9 0 9
5 16 10 16 6 0 10 -4 10 -9z m60 -27 c0 -18 -26 -18 -33 0 -3 8 -3 16 0 19 9
10 33 -5 33 -19z m-100 -10 c0 -8 -6 -11 -15 -8 -8 4 -15 12 -15 20 0 8 6 11
15 8 8 -4 15 -12 15 -20z m25 -34 c3 -5 1 -10 -4 -10 -6 0 -11 5 -11 10 0 6 2
10 4 10 3 0 8 -4 11 -10z m-105 -10 c0 -5 -9 -10 -20 -10 -11 0 -20 5 -20 10
0 6 9 10 20 10 11 0 20 -4 20 -10z m64 -6 c23 -9 20 -24 -4 -24 -11 0 -20 7
-20 15 0 17 2 18 24 9z m-110 -25 c-3 -5 -10 -7 -15 -3 -5 3 -7 10 -3 15 3 5
10 7 15 3 5 -3 7 -10 3 -15z m-74 1 c0 -5 -4 -10 -10 -10 -5 0 -10 5 -10 10 0
6 5 10 10 10 6 0 10 -4 10 -10z m149 -40 c1 -10 -15 -20 -44 -29 -36 -11 -45
-18 -45 -36 0 -18 -4 -22 -20 -18 -20 5 -28 23 -11 23 5 0 13 9 16 20 3 11 15
20 26 20 10 0 19 6 19 14 0 8 9 18 20 21 11 3 20 14 21 23 0 14 2 13 9 -3 5
-11 9 -27 9 -35z m-166 -40 c17 -20 16 -20 -10 -14 -35 8 -37 10 -28 23 9 16
18 14 38 -9z m161 -15 c6 -16 -2 -45 -13 -45 -19 1 -28 17 -20 38 10 25 24 29
33 7z m66 -15 c0 -5 -7 -10 -15 -10 -8 0 -15 5 -15 10 0 6 7 10 15 10 8 0 15
-4 15 -10z m-230 -45 c0 -9 -6 -12 -15 -9 -8 4 -15 10 -15 15 0 5 7 9 15 9 8
0 15 -7 15 -15z m30 5 c0 -5 -4 -10 -10 -10 -5 0 -10 5 -10 10 0 6 5 10 10 10
6 0 10 -4 10 -10z m0 -155 c0 -16 -35 -21 -44 -6 -8 12 4 21 26 21 10 0 18 -7
18 -15z m-110 -61 c0 -8 -4 -12 -10 -9 -5 3 -10 10 -10 16 0 5 5 9 10 9 6 0
10 -7 10 -16z m65 -74 c16 -18 16 -20 2 -20 -10 0 -17 5 -17 10 0 6 -9 10 -20
10 -11 0 -20 -5 -20 -10 0 -7 -8 -6 -22 1 -22 12 -22 12 -3 20 35 13 61 10 80
-11z m665 -164 c0 -8 -4 -17 -9 -21 -12 -7 -24 12 -16 25 9 15 25 12 25 -4z
m292 -61 c0 -5 -5 -11 -11 -13 -6 -2 -11 4 -11 13 0 9 5 15 11 13 6 -2 11 -8
11 -13z"/>
<path d="M13425 2160 c-10 -16 7 -31 23 -21 10 6 10 10 -2 20 -10 9 -16 9 -21
1z"/>
<path d="M13703 2153 c-3 -10 -8 -21 -10 -25 -2 -5 5 -8 16 -8 16 0 21 6 21
25 0 29 -18 34 -27 8z"/>
<path d="M14040 2160 c0 -5 5 -10 10 -10 6 0 10 5 10 10 0 6 -4 10 -10 10 -5
0 -10 -4 -10 -10z"/>
<path d="M13550 2140 c0 -5 5 -10 10 -10 6 0 10 5 10 10 0 6 -4 10 -10 10 -5
0 -10 -4 -10 -10z"/>
<path d="M10446 2120 c15 -15 154 -48 226 -54 51 -4 41 -1 -52 18 -63 13 -128
29 -143 35 -35 14 -44 14 -31 1z"/>
<path d="M13365 2120 c-3 -5 -2 -10 4 -10 5 0 13 5 16 10 3 6 2 10 -4 10 -5 0
-13 -4 -16 -10z"/>
<path d="M13630 2120 c0 -5 5 -10 11 -10 5 0 7 5 4 10 -3 6 -8 10 -11 10 -2 0
-4 -4 -4 -10z"/>
<path d="M13838 2123 c6 -2 18 -2 25 0 6 3 1 5 -13 5 -14 0 -19 -2 -12 -5z"/>
<path d="M13546 2093 c-11 -11 -6 -23 9 -23 8 0 15 4 15 9 0 13 -16 22 -24 14z"/>
<path d="M13476 2083 c-12 -12 -6 -23 23 -37 27 -14 29 -14 24 2 -5 20 -38 44
-47 35z"/>
<path d="M13261 2071 c-10 -6 -10 -10 -1 -16 13 -8 24 -1 19 14 -3 6 -10 7
-18 2z"/>
<path d="M10770 2050 c14 -4 41 -9 60 -9 30 -1 81 -11 198 -38 12 -3 22 -1 22
5 0 13 -69 28 -185 42 -103 11 -131 12 -95 0z"/>
<path d="M13600 2040 c0 -13 5 -18 14 -14 8 3 12 12 9 20 -8 21 -23 17 -23 -6z"/>
<path d="M13841 2044 c0 -11 3 -14 6 -6 3 7 2 16 -1 19 -3 4 -6 -2 -5 -13z"/>
<path d="M13271 2018 c-9 -14 -9 -24 -2 -31 7 -7 12 -1 17 17 8 34 2 41 -15
14z"/>
<path d="M13410 2036 c0 -2 7 -6 15 -10 8 -3 15 -1 15 4 0 6 -7 10 -15 10 -8
0 -15 -2 -15 -4z"/>
<path d="M13460 1990 c0 -32 1 -33 17 -17 16 16 16 18 0 34 -16 16 -17 15 -17
-17z"/>
<path d="M13637 1990 c-17 -32 -12 -37 16 -16 19 14 22 32 8 41 -5 3 -16 -8
-24 -25z"/>
<path d="M13330 1992 c0 -17 12 -42 20 -42 12 0 6 43 -7 48 -7 2 -13 -1 -13
-6z"/>
<path d="M13920 1984 c0 -8 5 -12 10 -9 6 3 10 10 10 16 0 5 -4 9 -10 9 -5 0
-10 -7 -10 -16z"/>
<path d="M13706 1974 c-11 -28 -6 -34 14 -22 11 7 20 18 20 25 0 18 -27 16
-34 -3z"/>
<path d="M13193 1934 c-13 -28 -8 -31 14 -8 9 9 12 19 7 24 -5 5 -14 -1 -21
-16z"/>
<path d="M13425 1951 c-3 -5 -1 -12 4 -15 5 -3 11 1 15 9 6 16 -9 21 -19 6z"/>
<path d="M13800 1950 c0 -5 7 -10 15 -10 8 0 15 5 15 10 0 6 -7 10 -15 10 -8
0 -15 -4 -15 -10z"/>
<path d="M13905 1950 c3 -5 8 -10 11 -10 2 0 4 5 4 10 0 6 -5 10 -11 10 -5 0
-7 -4 -4 -10z"/>
<path d="M14110 1949 c0 -5 5 -7 10 -4 6 3 10 8 10 11 0 2 -4 4 -10 4 -5 0
-10 -5 -10 -11z"/>
<path d="M13481 1933 c-18 -8 -40 -21 -48 -29 -18 -18 -22 -18 -45 3 -16 15
-21 15 -28 3 -5 -8 -12 -12 -15 -8 -9 8 -65 -11 -65 -23 0 -5 -12 -4 -26 1
-36 14 -54 12 -54 -4 0 -10 -14 -16 -42 -19 l-43 -4 48 -1 c34 -1 47 -6 45
-14 -6 -18 -88 -23 -88 -6 0 7 -15 -3 -33 -23 -19 -20 -43 -42 -55 -48 -12 -6
-22 -18 -22 -26 0 -8 -6 -15 -14 -15 -8 0 -23 -11 -34 -24 -10 -14 -31 -28
-45 -32 -52 -12 -27 -47 65 -89 92 -42 277 -85 448 -105 332 -37 1046 -52
1382 -30 267 19 500 51 523 73 6 6 3 7 -10 3 -87 -25 -764 -54 -967 -41 l-118
7 0 33 c0 30 -4 34 -32 41 -18 3 -38 13 -44 21 -9 13 -13 11 -28 -12 -22 -33
-31 -27 -15 9 17 38 -2 57 -31 31 -22 -20 -27 -7 -9 28 9 20 9 20 -4 5 -20
-25 -60 -24 -52 1 5 15 -1 19 -34 25 -52 8 -59 22 -22 44 l31 18 -33 2 c-62 2
-127 14 -127 23 0 5 -22 9 -50 9 -27 0 -50 5 -50 10 0 6 5 10 10 10 6 0 10 6
10 14 0 17 -33 27 -51 15 -8 -5 -10 -9 -4 -9 5 0 4 -5 -3 -12 -9 -9 -15 -9
-24 0 -15 15 -54 16 -63 2 -11 -18 -36 -10 -68 21 -26 26 -29 34 -19 50 16 26
15 29 -10 29 -18 0 -20 -2 -8 -10 8 -5 11 -12 8 -15 -10 -10 -44 18 -43 35 0
9 11 16 28 18 15 2 27 7 27 12 0 16 -15 17 -49 3z m-111 -64 c0 -5 -4 -7 -10
-4 -5 3 -17 -3 -27 -15 -18 -21 -53 -28 -53 -10 0 6 6 10 14 10 7 0 19 7 26
15 14 17 50 20 50 4z m105 -51 c-4 -9 -16 -19 -28 -22 -23 -6 -40 4 -19 11 15
6 16 30 0 35 -7 3 -9 12 -5 22 6 15 9 15 32 -7 16 -14 23 -29 20 -39z m-85 16
c0 -2 -7 -4 -15 -4 -8 0 -15 4 -15 10 0 5 7 7 15 4 8 -4 15 -8 15 -10z m530
-130 c0 -14 -3 -14 -15 -4 -8 7 -15 14 -15 16 0 2 7 4 15 4 8 0 15 -7 15 -16z
m-60 -14 c0 -5 -4 -10 -10 -10 -5 0 -10 5 -10 10 0 6 5 10 10 10 6 0 10 -4 10
-10z m40 -40 c0 -5 -4 -10 -10 -10 -5 0 -10 5 -10 10 0 6 5 10 10 10 6 0 10
-4 10 -10z m-910 -10 c8 -5 11 -10 5 -10 -5 0 -17 5 -25 10 -8 5 -10 10 -5 10
6 0 17 -5 25 -10z m1010 -32 c0 -13 -23 -5 -28 10 -2 7 2 10 12 6 9 -3 16 -11
16 -16z"/>
<path d="M13280 1930 c0 -5 11 -10 25 -10 14 0 25 5 25 10 0 6 -11 10 -25 10
-14 0 -25 -4 -25 -10z"/>
<path d="M13650 1921 c0 -10 30 -24 37 -17 3 3 2 9 -2 15 -8 13 -35 15 -35 2z"/>
<path d="M13836 1908 c-9 -34 -6 -46 4 -20 5 12 16 22 25 22 8 0 15 5 15 10 0
20 -38 10 -44 -12z"/>
<path d="M13720 1895 c0 -8 5 -15 10 -15 6 0 10 7 10 15 0 8 -4 15 -10 15 -5
0 -10 -7 -10 -15z"/>
<path d="M13776 1894 c-11 -29 -6 -47 20 -70 32 -31 36 -30 18 4 -7 15 -14 37
-14 49 0 27 -16 38 -24 17z"/>
<path d="M13597 1894 c-3 -3 -3 -12 -1 -18 3 -7 -2 -19 -11 -26 -20 -16 -19
-27 3 -39 15 -8 17 -3 19 40 1 50 0 53 -10 43z"/>
<path d="M14000 1890 c0 -5 5 -10 11 -10 5 0 7 5 4 10 -3 6 -8 10 -11 10 -2 0
-4 -4 -4 -10z"/>
<path d="M13910 1880 c0 -5 5 -10 11 -10 5 0 7 5 4 10 -3 6 -8 10 -11 10 -2 0
-4 -4 -4 -10z"/>
<path d="M13675 1849 c-4 -6 -4 -13 -1 -16 3 -4 6 -1 6 6 0 8 7 10 20 6 11 -4
20 -2 20 4 0 14 -37 14 -45 0z"/>
<path d="M13840 1850 c0 -5 5 -10 10 -10 6 0 10 5 10 10 0 6 -4 10 -10 10 -5
0 -10 -4 -10 -10z"/>
<path d="M13040 1810 c0 -5 5 -10 11 -10 5 0 7 5 4 10 -3 6 -8 10 -11 10 -2 0
-4 -4 -4 -10z"/>
<path d="M15760 1790 c0 -5 7 -7 15 -4 8 4 15 8 15 10 0 2 -7 4 -15 4 -8 0
-15 -4 -15 -10z"/>
<path d="M10230 1756 c0 -17 45 -40 128 -65 115 -34 121 -35 327 -66 299 -44
370 -56 448 -76 109 -28 234 -74 279 -104 44 -29 51 -18 12 18 -67 63 -306
124 -684 176 -256 36 -428 75 -475 107 -19 14 -35 18 -35 10z"/>
<path d="M12912 1709 c2 -7 10 -15 17 -17 8 -3 12 1 9 9 -2 7 -10 15 -17 17
-8 3 -12 -1 -9 -9z"/>
<path d="M14025 1680 c4 -6 11 -8 16 -5 14 9 11 15 -7 15 -8 0 -12 -5 -9 -10z"/>
<path d="M3997 1657 c-3 -11 15 -37 27 -37 3 0 6 9 6 19 0 21 -27 36 -33 18z"/>
<path d="M14152 1630 c0 -14 2 -19 5 -12 2 6 2 18 0 25 -3 6 -5 1 -5 -13z"/>
<path d="M3877 1633 c-12 -12 -7 -33 8 -33 8 0 20 -9 27 -20 22 -35 26 -21 6
20 -20 39 -28 46 -41 33z"/>
<path d="M3950 1625 c0 -3 10 -19 21 -35 23 -31 19 -66 -6 -56 -19 7 -19 -13
0 -38 17 -23 18 -22 38 27 9 20 21 37 26 37 6 0 11 7 11 15 0 8 -7 15 -15 15
-8 0 -15 4 -15 9 0 5 -8 11 -17 15 -10 3 -24 9 -30 12 -7 3 -13 3 -13 -1z"/>
<path d="M4092 1588 c-14 -14 -16 -28 -2 -28 5 0 14 9 20 20 12 22 1 27 -18 8z"/>
<path d="M14305 1531 c-3 -5 -1 -12 5 -16 5 -3 10 1 10 9 0 18 -6 21 -15 7z"/>
<path d="M4050 1520 c0 -5 5 -10 10 -10 6 0 10 5 10 10 0 6 -4 10 -10 10 -5 0
-10 -4 -10 -10z"/>
<path d="M4120 1499 c0 -5 5 -7 10 -4 6 3 10 8 10 11 0 2 -4 4 -10 4 -5 0 -10
-5 -10 -11z"/>
<path d="M3905 1480 c-3 -5 1 -10 10 -10 9 0 13 5 10 10 -3 6 -8 10 -10 10 -2
0 -7 -4 -10 -10z"/>
<path d="M3720 1455 c0 -17 2 -18 24 -9 23 9 20 24 -4 24 -11 0 -20 -7 -20
-15z"/>
<path d="M4364 1436 c-17 -14 -42 -28 -57 -31 -14 -4 -28 -13 -31 -21 -11 -28
13 -22 68 16 58 41 76 48 76 30 0 -5 9 -19 20 -30 11 -11 20 -17 20 -13 0 10
-50 73 -58 73 -4 0 -21 -11 -38 -24z"/>
<path d="M3880 1440 c0 -5 5 -10 11 -10 5 0 7 5 4 10 -3 6 -8 10 -11 10 -2 0
-4 -4 -4 -10z"/>
<path d="M4145 1432 c-13 -9 -39 -42 -33 -42 9 0 51 40 47 45 -3 2 -9 1 -14
-3z"/>
<path d="M3760 1420 c0 -5 6 -10 14 -10 8 0 18 5 21 10 3 6 -3 10 -14 10 -12
0 -21 -4 -21 -10z"/>
<path d="M3940 1410 c0 -5 5 -10 10 -10 6 0 10 5 10 10 0 6 -4 10 -10 10 -5 0
-10 -4 -10 -10z"/>
<path d="M3820 1406 c0 -2 9 -6 20 -9 11 -3 18 -1 14 4 -5 9 -34 13 -34 5z"/>
<path d="M4028 1393 c7 -3 16 -2 19 1 4 3 -2 6 -13 5 -11 0 -14 -3 -6 -6z"/>
<path d="M4487 1329 c8 -16 18 -28 21 -25 7 7 -18 56 -29 56 -4 0 -1 -14 8
-31z"/>
<path d="M11490 1352 c1 -26 59 -64 156 -103 44 -18 93 -35 109 -40 167 -43
326 -78 470 -105 146 -26 744 -98 955 -114 74 -6 176 -15 225 -20 327 -35
1077 -61 1720 -60 677 1 901 10 874 34 -2 2 -103 0 -224 -5 -651 -23 -1887 8
-2405 61 -52 5 -149 14 -215 20 -133 12 -292 29 -555 60 -519 61 -911 153
-1064 250 -25 16 -46 26 -46 22z"/>
<path d="M3602 1333 c2 -10 10 -18 18 -18 8 0 16 8 18 18 2 12 -3 17 -18 17
-15 0 -20 -5 -18 -17z"/>
<path d="M3697 1334 c-9 -10 2 -24 19 -24 8 0 14 7 14 15 0 15 -21 21 -33 9z"/>
<path d="M3812 1323 c-13 -3 -21 -10 -19 -16 6 -20 25 -19 37 2 6 12 9 20 8
20 -2 -1 -13 -4 -26 -6z"/>
<path d="M4360 1278 c-14 -11 -18 -18 -10 -14 8 3 23 9 33 12 9 4 17 10 17 15
0 14 -13 10 -40 -13z"/>
<path d="M4060 1280 c0 -5 5 -10 10 -10 6 0 10 5 10 10 0 6 -4 10 -10 10 -5 0
-10 -4 -10 -10z"/>
<path d="M4520 1278 c0 -19 26 -42 34 -30 3 5 -3 17 -14 27 -17 15 -20 16 -20
3z"/>
<path d="M3620 1266 c0 -9 5 -16 10 -16 6 0 10 4 10 9 0 6 -4 13 -10 16 -5 3
-10 -1 -10 -9z"/>
<path d="M3530 1246 c0 -16 28 -42 36 -33 8 7 -14 47 -26 47 -6 0 -10 -6 -10
-14z"/>
<path d="M4560 1230 c0 -21 17 -46 25 -38 4 4 0 17 -9 30 -10 14 -16 17 -16 8z"/>
<path d="M3635 1220 c-3 -5 1 -10 9 -10 9 0 16 5 16 10 0 6 -4 10 -9 10 -6 0
-13 -4 -16 -10z"/>
<path d="M3817 1224 c-8 -8 1 -24 13 -24 4 0 10 7 14 15 5 15 -14 21 -27 9z"/>
<path d="M3580 1211 c0 -5 6 -14 14 -20 16 -13 32 2 21 19 -8 12 -35 13 -35 1z"/>
<path d="M3780 1170 c0 -11 5 -20 10 -20 6 0 10 9 10 20 0 11 -4 20 -10 20 -5
0 -10 -9 -10 -20z"/>
<path d="M3575 1160 c-19 -8 -19 -9 3 -9 12 -1 22 4 22 9 0 6 -1 10 -2 9 -2 0
-12 -4 -23 -9z"/>
<path d="M3621 1151 c-13 -12 -20 -25 -16 -32 6 -8 10 -7 17 5 5 9 16 16 23
16 8 0 15 7 15 15 0 20 -12 19 -39 -4z"/>
<path d="M3718 1163 c7 -3 16 -2 19 1 4 3 -2 6 -13 5 -11 0 -14 -3 -6 -6z"/>
<path d="M3995 1160 c3 -5 8 -10 11 -10 2 0 4 5 4 10 0 6 -5 10 -11 10 -5 0
-7 -4 -4 -10z"/>
<path d="M3688 1129 c-22 -12 -23 -38 -2 -67 8 -12 12 -22 7 -23 -4 0 2 -4 15
-10 31 -12 62 5 62 34 -1 20 -2 20 -11 5 -13 -23 -31 -23 -46 1 -10 16 -8 22
7 36 31 28 6 47 -32 24z"/>
<path d="M3530 1120 c0 -5 5 -10 10 -10 6 0 10 5 10 10 0 6 -4 10 -10 10 -5 0
-10 -4 -10 -10z"/>
<path d="M3831 1114 c0 -11 3 -14 6 -6 3 7 2 16 -1 19 -3 4 -6 -2 -5 -13z"/>
<path d="M4025 1110 c-3 -5 1 -10 9 -10 9 0 16 5 16 10 0 6 -4 10 -9 10 -6 0
-13 -4 -16 -10z"/>
<path d="M4200 1090 c0 -11 4 -20 9 -20 5 0 7 9 4 20 -3 11 -7 20 -9 20 -2 0
-4 -9 -4 -20z"/>
<path d="M3870 1090 c0 -5 5 -10 10 -10 6 0 10 5 10 10 0 6 -4 10 -10 10 -5 0
-10 -4 -10 -10z"/>
<path d="M4655 1080 c3 -5 8 -10 11 -10 2 0 4 5 4 10 0 6 -5 10 -11 10 -5 0
-7 -4 -4 -10z"/>
<path d="M2920 1049 l-45 -19 50 6 c65 7 85 13 85 25 0 14 -40 9 -90 -12z"/>
<path d="M4020 1026 c0 -19 6 -25 33 -29 37 -5 52 1 20 9 -12 3 -23 14 -26 25
-7 27 -27 24 -27 -5z"/>
<path d="M4182 1031 c4 -13 18 -16 19 -4 0 4 -5 9 -11 12 -7 2 -11 -2 -8 -8z"/>
<path d="M2770 1014 c-38 -12 -40 -13 -10 -9 19 3 53 9 75 14 35 8 36 9 10 9
-16 0 -50 -6 -75 -14z"/>
<path d="M4143 993 c9 -9 19 -14 23 -11 10 10 -6 28 -24 28 -15 0 -15 -1 1
-17z"/>
<path d="M2650 990 l-25 -8 25 0 c14 0 34 3 45 8 l20 9 -20 -1 c-11 0 -31 -4
-45 -8z"/>
<path d="M2543 963 c9 -2 23 -2 30 0 6 3 -1 5 -18 5 -16 0 -22 -2 -12 -5z"/>
<path d="M4172 953 c2 -10 12 -18 23 -18 11 0 21 8 23 18 3 13 -3 17 -23 17
-20 0 -26 -4 -23 -17z"/>
<path d="M4550 930 c0 -5 5 -10 11 -10 5 0 7 5 4 10 -3 6 -8 10 -11 10 -2 0
-4 -4 -4 -10z"/>
<path d="M4760 935 c0 -3 8 -13 18 -23 9 -10 22 -27 29 -38 9 -14 12 -15 12
-4 1 8 -10 27 -23 43 -22 25 -36 34 -36 22z"/>
<path d="M2348 923 c7 -3 16 -2 19 1 4 3 -2 6 -13 5 -11 0 -14 -3 -6 -6z"/>
<path d="M4669 844 c-12 -14 -11 -16 5 -13 11 2 21 10 24 17 5 17 -13 15 -29
-4z"/>
<path d="M5675 130 c-3 -6 1 -7 9 -4 18 7 21 14 7 14 -6 0 -13 -4 -16 -10z"/>
<path d="M5615 110 c-13 -5 -14 -9 -5 -9 8 0 24 4 35 9 13 5 14 9 5 9 -8 0
-24 -4 -35 -9z"/>
<path d="M5516 74 c-22 -8 -42 -17 -45 -20 -8 -8 48 7 84 22 41 18 10 16 -39
-2z"/>
<path d="M5350 24 c-68 -19 -76 -23 -40 -20 25 2 70 13 100 24 73 27 45 25
-60 -4z"/>
</g>
</svg>
